A Major noted for advancing with his mouth before thinking is given a choice: to be drummed out of the Army, or take command of and shape up the ROTC program at Sheridan Academy before it fails its next inspection. At Sheridan he encounters three hundred pre-teen cadets who range from rascally to adorable, and a female doctor who has just the right prescription for him.

Charlton Heston		Maj. Bernard R. (Barney) Benson
Julie Adams			Dr. Kay Lambert
William Demarest		John
Milburn Stone			Maj. Gen. Wilton J. Ramsey

   Video #0
      ID : 0
      Format : MPEG-4 Visual
      Format profile : Simple@L3
      Format settings, BVOP : No
      Format settings, QPel : No
      Format settings, GMC : No warppoints
      Format settings, Matrix : Default (H.263)
      Codec ID : XVID
      Codec ID/Hint : XviD
      Duration : 1h 44mn
      Bit rate : 941 Kbps
      Width : 720 pixels
      Height : 480 pixels
      Display aspect ratio : 1.500
      Frame rate : 29.970 fps
      Standard : NTSC
      Resolution : 24 bits
      Colorimetry : 4:2:0
      Scan type : Progressive
      Bits/(Pixel*Frame) : 0.091
      Stream size : 705 MiB (87%)
      Writing library : XviD 1.2.1 (UTC 2008-12-04)
   Audio #1
      ID : 1
      Format : MPEG Audio
      Format version : Version 1
      Format profile : Layer 3
      Codec ID : 55
      Codec ID/Hint : MP3
      Duration : 1h 44mn
      Bit rate mode : Variable
      Bit rate : 122 Kbps
      Channel(s) : 2 channels
      Sampling rate : 48.0 KHz
      Resolution : 16 bits
      Stream size : 91.7 MiB (11%)
      Alignment : Aligned on interleaves
